<?xml version="1.0" encoding="UTF-8" standalone="no"?>
<!-- Created with Inkscape (http://www.inkscape.org/) -->

<svg
   width="214.883mm"
   height="214.883mm"
   viewBox="0 0 214.883 214.883"
   version="1.1"
   id="svg1"
   xml:space="preserve"
   sodipodi:docname="livelyleos-logo.svg"
   inkscape:version="1.3.2 (091e20e, 2023-11-25, custom)"
   xmlns:inkscape="http://www.inkscape.org/namespaces/inkscape"
   xmlns:sodipodi="http://sodipodi.sourceforge.net/DTD/sodipodi-0.dtd"
   xmlns="http://www.w3.org/2000/svg"
   xmlns:svg="http://www.w3.org/2000/svg"><sodipodi:namedview
     id="namedview1"
     pagecolor="#ffffff"
     bordercolor="#000000"
     borderopacity="0.25"
     inkscape:showpageshadow="2"
     inkscape:pageopacity="0.0"
     inkscape:pagecheckerboard="0"
     inkscape:deskcolor="#d1d1d1"
     inkscape:document-units="mm"
     inkscape:zoom="1.0108893"
     inkscape:cx="406.0781"
     inkscape:cy="402.12119"
     inkscape:window-width="1920"
     inkscape:window-height="1017"
     inkscape:window-x="-8"
     inkscape:window-y="-8"
     inkscape:window-maximized="1"
     inkscape:current-layer="layer2" /><defs
     id="defs1"><linearGradient
       id="swatch1"><stop
         style="stop-color:#000000;stop-opacity:1;"
         offset="0"
         id="stop1" /></linearGradient></defs><g
     id="layer2"
     clip-path="none"
     transform="matrix(1.1875,0,0,1.2544643,-28.027865,-50.937302)"><ellipse
       style="opacity:1;fill:#bb3e1f;fill-opacity:1;stroke:none;stroke-width:9.48527;stroke-linecap:round;stroke-linejoin:round;stroke-dasharray:none;stroke-dashoffset:0;stroke-opacity:1"
       id="circle13"
       cx="114.07946"
       cy="126.25214"
       clip-path="none"
       rx="85.734413"
       ry="80.904678" /><path
       id="path2"
       style="display:inline;opacity:1;fill:#000000;fill-opacity:1;stroke:#000000;stroke-width:6.237"
       d="m 114.49513,85.124844 c 9.82743,-2e-6 17.79414,7.966705 17.51028,17.306706 7.32766,0.6075 20.1728,2.14631 23.18704,6.45639 5.76414,8.24221 2.60599,16.44548 -0.36176,21.70524 -8.09041,14.33867 -16.80575,20.59535 -33.68584,27.05487 -4.64249,1.77655 -8.97277,4.49122 -11.89516,10.20578 -1.63055,3.18845 -6.07259,29.72165 -11.004929,34.85455 -3.03175,3.15503 -2.246711,-1.33761 -9.481765,-0.25233 -7.235074,1.08529 -23.552084,-7.53375 -32.595934,-14.04532 -9.04385,-6.51157 -24.016993,-27.14942 -20.677095,-27.93873 11.308427,-2.67249 18.786661,-12.9718 20.943649,-30.60233 1.413595,-11.55427 19.439417,-33.70523 42.316598,-36.327763 3.871336,-5.120371 9.423136,-8.417062 15.744916,-8.417063 z"
       clip-path="none" /><path
       id="path8"
       style="opacity:1;fill:#bb3e1f;fill-opacity:1;stroke:#000000;stroke-width:0.379999;stroke-dasharray:none"
       d="M 128.2249,106.35565 A 14.995915,14.995915 0 0 1 113.22898,121.35156 14.995915,14.995915 0 0 1 98.233073,106.35565 14.995915,14.995915 0 0 1 113.22898,91.359736 14.995915,14.995915 0 0 1 128.2249,106.35565 Z"
       clip-path="none" /><path
       style="opacity:1;fill:none;fill-opacity:1;stroke:#bb3e1f;stroke-width:8.837;stroke-linecap:round;stroke-linejoin:round;stroke-dashoffset:0;stroke-opacity:1"
       d="m 83.676957,119.07481 c 1.933272,6.41936 4.667754,10.44809 9.181937,13.46248 m 8.896616,4.08415 c 1.41872,0.30261 2.88135,0.48719 4.37983,0.55327 m 9.94242,-1.32366 c 1.10372,-0.26618 1.03263,-0.16218 2.14519,-0.54364"
       id="path9"
       clip-path="none" /><path
       style="opacity:1;fill:none;fill-opacity:1;stroke:#bb3e1f;stroke-width:13.037;stroke-linecap:round;stroke-linejoin:round;stroke-dasharray:none;stroke-opacity:1"
       d="m 96.588307,172.55664 c -2.67692,12.71114 -2.917883,16.83834 -10.30047,26.37585"
       id="path10"
       clip-path="none" /><path
       style="display:inline;opacity:1;fill:#bb3e1f;fill-opacity:1;stroke:#bb3e1f;stroke-width:13.037;stroke-linecap:round;stroke-linejoin:round;stroke-dasharray:none;stroke-opacity:1"
       d="m 75.11895,188.60841 1.698761,-3.52499"
       id="path12"
       clip-path="none" /><ellipse
       style="opacity:1;fill:none;fill-opacity:1;stroke:#000000;stroke-width:9.48527;stroke-linecap:round;stroke-linejoin:round;stroke-dasharray:none;stroke-dashoffset:0;stroke-opacity:1"
       id="ellipse1"
       cx="114.07946"
       cy="126.25214"
       clip-path="none"
       rx="85.734413"
       ry="80.904678" /></g></svg>
